<svg xmlns="http://www.w3.org/2000/svg" viewBox="0 0 127.436 28" width="127.436" height="28">
    <path d="M9.767 0L6.36 15.967h8.518l1.833-8.589h19.736L38.019 0z" data-name="Path 1677" fill="#045462" fill-rule="evenodd"/>
    <path d="M23.217 11.984l-1.844 8.639H1.574L0 28h28.318l3.418-16.016zm22.1 10.3a5.109 5.109 0 003.676 1.483 3.2 3.2 0 003.507-3.129c0-3.808-5.785-3.016-5.785-5.769a2.218 2.218 0 012.439-2 3.955 3.955 0 012.539.989l.56-.956a4.5 4.5 0 00-3.1-1.121 3.334 3.334 0 00-3.61 3.116c0 3.593 5.786 2.852 5.786 5.769a2.089 2.089 0 01-2.308 2.011 4.521 4.521 0 01-3.033-1.269zm14.968 1.285h1.138V13.006h4.154v-1.022H56.11v1.022h4.171zm17 0h1.2l-4.256-11.585h-1.22l-4.253 11.589h1.2L73.6 13.187h.033zm5.937-5.868a5.835 5.835 0 005.868 6.066 6.184 6.184 0 004.435-1.8l-.66-.808a5.418 5.418 0 01-3.758 1.55 4.775 4.775 0 01-4.7-5.027 4.633 4.633 0 014.665-4.847 5.447 5.447 0 013.528 1.286l.61-.84a5.885 5.885 0 00-4.171-1.5 5.749 5.749 0 00-5.82 5.918m15.328.33l3.313 5.538h1.335L99.5 17.49v-.033l3.461-5.472h-1.3l-3.116 5.028-.336.519zm10.633 5.538h2.885v-11.78h-2.885zm8.22-11.781v2.474h3.577v9.313h2.885v-9.314h3.576v-2.473z" data-name="Path 1678" fill="#045462" fill-rule="evenodd"/>
</svg>
